<?xml version="1.0" encoding="UTF-8"?>
<svg version="1.1" xmlns="http://www.w3.org/2000/svg" width="2048" height="2048">
<path d="M0 0 C675.84 0 1351.68 0 2048 0 C2048 675.84 2048 1351.68 2048 2048 C1372.16 2048 696.32 2048 0 2048 C0 1372.16 0 696.32 0 0 Z " fill="#2E2E2E" transform="translate(0,0)"/>
<path d="M0 0 C0.79159515 0.00420456 1.58319031 0.00840912 2.39877319 0.01274109 C5.10654466 0.03352657 7.8123076 0.09090283 10.51953125 0.1484375 C12.46929457 0.17290526 14.41908606 0.19520433 16.36889648 0.21557617 C20.92491201 0.26713173 25.48042758 0.33481753 30.03613281 0.40869141 C37.98590904 0.52923156 45.93546198 0.58079049 53.88597107 0.62683105 C60.40852956 0.66463396 66.93097097 0.71504595 73.45341587 0.76878738 C78.14474142 0.80735353 82.83602162 0.84225964 87.5274353 0.8682251 C92.01455629 0.8939485 96.50131303 0.93467256 100.98820877 0.98624611 C102.66486892 1.00309231 104.3415892 1.014813 106.01832199 1.0211544 C108.33493734 1.03074373 110.65064812 1.058666 112.96704102 1.09106445 C114.92735008 1.10771904 114.92735008 1.10771904 116.92726135 1.12471008 C127.03144218 2.30799531 134.38893394 13.30826741 140.62109375 20.59375 C143.07776244 23.36451332 145.72563102 25.9263665 148.36328125 28.5234375 C150.88628584 31.08648978 153.20765942 33.79689574 155.55078125 36.5234375 C157.40628335 38.60680828 159.34426226 40.56624957 161.33203125 42.5234375 C164.58233108 45.72373272 167.5792737 49.06568326 170.55078125 52.5234375 C172.40628335 54.60680828 174.34426226 56.56624957 176.33203125 58.5234375 C178.93185308 61.08333884 181.39471523 63.6912329 183.76953125 66.4609375 C186.33868396 69.45145466 189.02520381 72.25460434 191.83203125 75.0234375 C195.26085915 78.40585149 198.45251643 81.90414192 201.5859375 85.55859375 C204.05684514 88.33905582 206.71370065 90.91461968 209.36328125 93.5234375 C211.88628584 96.08648978 214.20765942 98.79689574 216.55078125 101.5234375 C218.40628335 103.60680828 220.34426226 105.56624957 222.33203125 107.5234375 C225.58233108 110.72373272 228.5792737 114.06568326 231.55078125 117.5234375 C233.40628335 119.60680828 235.34426226 121.56624957 237.33203125 123.5234375 C240.58233108 126.72373272 243.5792737 130.06568326 246.55078125 133.5234375 C248.40628335 135.60680828 250.34426226 137.56624957 252.33203125 139.5234375 C255.58233108 142.72373272 258.5792737 146.06568326 261.55078125 149.5234375 C263.40628335 151.60680828 265.34426226 153.56624957 267.33203125 155.5234375 C269.93185308 158.08333884 272.39471523 160.6912329 274.76953125 163.4609375 C277.33868396 166.45145466 280.02520381 169.25460434 282.83203125 172.0234375 C286.26085915 175.40585149 289.45251643 178.90414192 292.5859375 182.55859375 C295.05684514 185.33905582 297.71370065 187.91461968 300.36328125 190.5234375 C302.88628584 193.08648978 305.20765942 195.79689574 307.55078125 198.5234375 C309.40628335 200.60680828 311.34426226 202.56624957 313.33203125 204.5234375 C316.58233108 207.72373272 319.5792737 211.06568326 322.55078125 214.5234375 C324.40628335 216.60680828 326.34426226 218.56624957 328.33203125 220.5234375 C331.58233108 223.72373272 334.5792737 227.06568326 337.55078125 230.5234375 C339.40628335 232.60680828 341.34426226 234.56624957 343.33203125 236.5234375 C346.58233108 239.72373272 349.5792737 243.06568326 352.55078125 246.5234375 C354.40628335 248.60680828 356.34426226 250.56624957 358.33203125 252.5234375 C360.93185308 255.08333884 363.39471523 257.6912329 365.76953125 260.4609375 C368.33868396 263.45145466 371.02520381 266.25460434 373.83203125 269.0234375 C377.26085915 272.40585149 380.45251643 275.90414192 383.5859375 279.55859375 C386.05684514 282.33905582 388.71370065 284.91461968 391.36328125 287.5234375 C393.88628584 290.08648978 396.20765942 292.79689574 398.55078125 295.5234375 C400.40628335 297.60680828 402.34426226 299.56624957 404.33203125 301.5234375 C407.58233108 304.72373272 410.5792737 308.06568326 413.55078125 311.5234375 C415.40628335 313.60680828 417.34426226 315.56624957 419.33203125 317.5234375 C422.58233108 320.72373272 425.5792737 324.06568326 428.55078125 327.5234375 C430.40628335 329.60680828 432.34426226 331.56624957 434.33203125 333.5234375 C437.58233108 336.72373272 440.5792737 340.06568326 443.55078125 343.5234375 C445.40628335 345.60680828 447.34426226 347.56624957 449.33203125 349.5234375 C451.93185308 352.08333884 454.39471523 354.6912329 456.76953125 357.4609375 C459.33868396 360.45145466 462.02520381 363.25460434 464.83203125 366.0234375 C468.26085915 369.40585149 471.45251643 372.90414192 474.5859375 376.55859375 C477.05684514 379.33905582 479.71370065 381.91461968 482.36328125 384.5234375 C484.88628584 387.08648978 487.20765942 389.79689574 489.55078125 392.5234375 C491.40628335 394.60680828 493.34426226 396.56624957 495.33203125 398.5234375 C498.58233108 401.72373272 501.5792737 405.06568326 504.55078125 408.5234375 C506.40628335 410.60680828 508.34426226 412.56624957 510.33203125 414.5234375 C513.57841901 417.71988083 516.5727483 421.05667544 519.5390625 424.51171875 C522.04735228 427.32603081 524.72888983 429.94606037 527.4375 432.56640625 C529.56898536 434.76820865 531.43126725 437.12152488 533.33203125 439.5234375 C533.35626705 430.46661329 533.37346507 421.40980168 533.38384342 412.35295105 C533.388849 408.13779485 533.39547776 403.9226621 533.4074707 399.70751953 C533.45826058 381.40859918 533.39483215 363.11366703 533.11212158 344.8165741 C533.10147095 344.12634617 533.09082032 343.43611825 533.07984694 342.72497433 C533.0352759 339.8453891 532.99047709 336.96580748 532.94548703 334.08622877 C532.36373189 296.72781872 532.13866485 259.37518514 532.09638879 222.0126901 C532.09281019 218.96003431 532.08867902 215.90737937 532.08454913 212.85472429 C532.06626217 199.29421461 532.05050253 185.73370447 532.04265118 172.17318439 C532.04074374 168.93405977 532.03882287 165.69493515 532.03686523 162.45581055 C532.03638149 161.65149423 532.03589775 160.84717791 532.03539935 160.01848837 C532.02698037 146.79912192 532.00136897 133.57984237 531.96928456 120.36051438 C531.93626419 106.64098862 531.91821183 92.92150784 531.91500694 79.20194215 C531.91285021 71.55518273 531.90421052 63.90855506 531.87854576 56.2618351 C531.85691868 49.80782697 531.8487534 43.35398355 531.85851254 36.89994327 C531.86306408 33.61571797 531.85894501 30.33190584 531.8417511 27.04771233 C531.82416982 23.4928458 531.83106845 19.9388531 531.84428406 16.38398743 C531.82783019 14.82779512 531.82783019 14.82779512 531.81104392 13.24016458 C531.85041855 8.87474377 531.92522658 6.23279046 534.12814045 2.39152813 C536.75760845 0.16270421 538.75596021 -0.31708764 542.19921875 -0.08203125 C546.50402734 1.1400298 549.24069075 4.43783233 552.33203125 7.5234375 C553.84657063 8.88463986 555.36782355 10.23839715 556.89453125 11.5859375 C561.92263549 16.11820403 566.86248333 20.74222212 571.80297852 25.36938477 C575.28170318 28.62342076 578.77943437 31.84978429 582.33203125 35.0234375 C587.17598465 39.35241911 591.91696769 43.78698266 596.65966797 48.22607422 C601.53484723 52.78680504 606.44393853 57.30804979 611.37109375 61.8125 C614.53458853 64.70550224 617.68379051 67.61385522 620.83203125 70.5234375 C624.99043335 74.36585535 629.15612199 78.20005347 633.33203125 82.0234375 C640.23314854 88.34273821 647.10506286 94.69353259 653.97753906 101.04394531 C659.75327809 106.38041245 665.53252667 111.71279468 671.33203125 117.0234375 C677.13306389 122.33547958 682.91372242 127.66938084 688.69091797 133.00732422 C691.4038071 135.51357854 694.11796417 138.01845895 696.83203125 140.5234375 C700.0943881 143.53446622 703.35646717 146.54579276 706.6171875 149.55859375 C711.8467825 154.38974342 717.08127503 159.215287 722.33203125 164.0234375 C729.23310102 170.34279049 736.10506255 176.6935323 742.97753906 183.04394531 C748.75327809 188.38041245 754.53252667 193.71279468 760.33203125 199.0234375 C766.13306389 204.33547958 771.91372242 209.66938084 777.69091797 215.00732422 C780.4038071 217.51357854 783.11796417 220.01845895 785.83203125 222.5234375 C789.0943881 225.53446622 792.35646717 228.54579276 795.6171875 231.55859375 C800.8467825 236.38974342 806.08127503 241.215287 811.33203125 246.0234375 C818.23310102 252.34279049 825.10506255 258.6935323 831.97753906 265.04394531 C837.75327809 270.38041245 843.53252667 275.71279468 849.33203125 281.0234375 C855.13306389 286.33547958 860.91372242 291.66938084 866.69091797 297.00732422 C869.4038071 299.51357854 872.11796417 302.01845895 874.83203125 304.5234375 C878.0943881 307.53446622 881.35646717 310.54579276 884.6171875 313.55859375 C889.35512887 317.93554911 894.09463633 322.31064177 898.85131836 326.66723633 C900.32485716 328.01686668 901.79719734 329.36780532 903.26953125 330.71875 C905.45142449 332.71976828 907.64049261 334.71267809 909.83203125 336.703125 C910.99878093 337.76813823 912.16544947 338.83324036 913.33203125 339.8984375 C913.87214844 340.38634766 914.41226563 340.87425781 914.96875 341.37695312 C923.1340943 348.85328223 923.1340943 348.85328223 923.67163086 353.38891602 C923.25191799 357.26288694 922.21307131 358.42885762 919.5234375 361.19921875 C918.6998877 362.0598291 917.87633789 362.92043945 917.02783203 363.80712891 C916.13821777 364.70351074 915.24860352 365.59989258 914.33203125 366.5234375 C913.4488623 367.4314209 912.56569336 368.3394043 911.65576172 369.27490234 C909.34971702 371.62954738 907.02879047 373.96750342 904.69311523 376.29272461 C903.26363408 377.71681242 901.83962614 379.14621794 900.41601562 380.57617188 C899.48982422 381.50107422 898.56363281 382.42597656 897.609375 383.37890625 C896.78687256 384.20028076 895.96437012 385.02165527 895.11694336 385.86791992 C893.07830067 387.81184177 891.03683334 389.63628018 888.89477539 391.45629883 C882.99963015 396.5792703 877.56527811 402.1800268 872.06336975 407.7169342 C870.01305552 409.78015063 867.95951259 411.84010562 865.90515137 413.89929199 C861.54461382 418.27119109 857.18802724 422.64701396 852.83203125 427.0234375 C847.77954799 432.09961451 842.72540783 437.17411879 837.66700745 442.24440002 C835.65543938 444.26239468 833.6469353 446.28340409 831.6385498 448.30456543 C826.38859631 453.57534923 821.16201075 458.76626496 815.49230957 463.5880127 C810.47937375 468.07917489 805.8059796 472.94415541 801.06336975 477.7169342 C799.01305552 479.78015063 796.95951259 481.84010562 794.90515137 483.89929199 C790.54461382 488.27119109 786.18802724 492.64701396 781.83203125 497.0234375 C776.77954799 502.09961451 771.72540783 507.17411879 766.66700745 512.24440002 C764.65543938 514.26239468 762.6469353 516.28340409 760.6385498 518.30456543 C755.384254 523.57970818 750.15337749 528.77572792 744.47888184 533.60144043 C739.53394049 538.02846616 734.92506875 542.82498214 730.24856567 547.53173828 C728.23185819 549.56135165 726.21191904 551.58770008 724.19116211 553.61328125 C719.9019533 557.91384984 715.6166965 562.21834276 711.33203125 566.5234375 C706.36215543 571.51700993 701.39062095 576.50890759 696.41482544 581.49658203 C694.43649511 583.48133736 692.46122996 585.46910773 690.48608398 587.45703125 C680.54254404 597.44068232 680.54254404 597.44068232 676.34570312 601.00976562 C670.59810801 605.90054332 665.37884269 611.36764819 660.06336975 616.7169342 C658.01305552 618.78015063 655.95951259 620.84010562 653.90515137 622.89929199 C649.54461382 627.27119109 645.18802724 631.64701396 640.83203125 636.0234375 C635.77954799 641.09961451 630.72540783 646.17411879 625.66700745 651.24440002 C623.65543938 653.26239468 621.6469353 655.28340409 619.6385498 657.30456543 C614.35312401 662.61095744 609.09153994 667.84369642 603.38259888 672.69772339 C598.92720057 676.66456821 594.77879476 680.97051802 590.57730675 685.20299721 C588.80981204 686.98340465 587.03908142 688.76053825 585.26753235 690.53691101 C581.5153569 694.30042869 577.7671655 698.06789849 574.01953125 701.8359375 C569.6565104 706.2225926 565.291854 710.60759479 560.92298317 714.9884243 C559.17988707 716.7379939 557.43983142 718.49054924 555.69987488 720.24324036 C554.63429274 721.31245388 553.56857059 722.3815279 552.50268555 723.45043945 C551.57417282 724.384189 550.6456601 725.31793854 549.68901062 726.27998352 C546.80096268 729.02892682 545.06328961 730.41093621 541.08203125 731.0234375 C533.84344688 730.05829292 529.73474454 724.04097077 525.20703125 718.71484375 C523.170653 716.33482667 521.06874573 714.02429139 518.95703125 711.7109375 C515.90344258 708.33402768 512.9877392 704.89126618 510.14453125 701.3359375 C505.83667621 696.00204343 501.1934326 691.04828264 496.4855957 686.0715332 C492.34659914 681.67346549 488.5049351 677.12080949 484.73828125 672.3984375 C481.7346112 668.80963692 478.54728971 665.4222308 475.33203125 662.0234375 C470.56024742 656.97926854 466.07019132 651.82948894 461.73828125 646.3984375 C458.7346112 642.80963692 455.54728971 639.4222308 452.33203125 636.0234375 C447.56024742 630.97926854 443.07019132 625.82948894 438.73828125 620.3984375 C435.7346112 616.80963692 432.54728971 613.4222308 429.33203125 610.0234375 C424.56024742 604.97926854 420.07019132 599.82948894 415.73828125 594.3984375 C412.7346112 590.80963692 409.54728971 587.4222308 406.33203125 584.0234375 C401.56024742 578.97926854 397.07019132 573.82948894 392.73828125 568.3984375 C389.7346112 564.80963692 386.54728971 561.4222308 383.33203125 558.0234375 C378.56024742 552.97926854 374.07019132 547.82948894 369.73828125 542.3984375 C366.7346112 538.80963692 363.54728971 535.4222308 360.33203125 532.0234375 C355.56024742 526.97926854 351.07019132 521.82948894 346.73828125 516.3984375 C343.7346112 512.80963692 340.54728971 509.4222308 337.33203125 506.0234375 C332.56024742 500.97926854 328.07019132 495.82948894 323.73828125 490.3984375 C320.7346112 486.80963692 317.54728971 483.4222308 314.33203125 480.0234375 C309.56024742 474.97926854 305.07019132 469.82948894 300.73828125 464.3984375 C297.7346112 460.80963692 294.54728971 457.4222308 291.33203125 454.0234375 C286.56024742 448.97926854 282.07019132 443.82948894 277.73828125 438.3984375 C274.7346112 434.80963692 271.54728971 431.4222308 268.33203125 428.0234375 C264.3380167 423.80143481 260.45913884 419.57085597 256.83203125 415.0234375 C252.05206479 409.03505255 246.79983768 403.52659337 241.55078125 397.953125 C237.59887108 393.75534828 233.80857352 389.44053245 230.07763672 385.04589844 C228.60157185 383.30784359 227.12366287 381.57138327 225.64453125 379.8359375 C225.13220947 379.23475098 224.6198877 378.63356445 224.09204102 378.01416016 C220.04970165 373.29841136 215.8602616 368.73928908 211.61791992 364.20385742 C208.59366105 360.95012085 205.73202627 357.62102831 202.95703125 354.1484375 C198.72224277 348.86650133 194.133316 343.98466872 189.48486328 339.07080078 C185.34616079 334.67294067 181.50471581 330.12053455 177.73828125 325.3984375 C174.7346112 321.80963692 171.54728971 318.4222308 168.33203125 315.0234375 C163.56024742 309.97926854 159.07019132 304.82948894 154.73828125 299.3984375 C151.7346112 295.80963692 148.54728971 292.4222308 145.33203125 289.0234375 C140.56024742 283.97926854 136.07019132 278.82948894 131.73828125 273.3984375 C128.7346112 269.80963692 125.54728971 266.4222308 122.33203125 263.0234375 C117.56024742 257.97926854 113.07019132 252.82948894 108.73828125 247.3984375 C105.7346112 243.80963692 102.54728971 240.4222308 99.33203125 237.0234375 C94.56024742 231.97926854 90.07019132 226.82948894 85.73828125 221.3984375 C82.7346112 217.80963692 79.54728971 214.4222308 76.33203125 211.0234375 C71.56024742 205.97926854 67.07019132 200.82948894 62.73828125 195.3984375 C59.7346112 191.80963692 56.54728971 188.4222308 53.33203125 185.0234375 C48.56024742 179.97926854 44.07019132 174.82948894 39.73828125 169.3984375 C36.7346112 165.80963692 33.54728971 162.4222308 30.33203125 159.0234375 C25.56024742 153.97926854 21.07019132 148.82948894 16.73828125 143.3984375 C13.16887087 139.13368744 9.33013933 135.13470661 5.50854492 131.09667969 C1.14259506 126.45856517 -2.9409555 121.68945804 -6.8984375 116.6953125 C-8.57580237 114.54664443 -8.57580237 114.54664443 -10.34375 112.9140625 C-12.77147044 110.36459797 -12.79710977 107.61980284 -12.8218689 104.28604126 C-12.83046936 103.4224852 -12.83906982 102.55892914 -12.84793091 101.66920471 C-12.85219086 100.7247197 -12.85645081 99.78023468 -12.86083984 98.80712891 C-12.86901733 97.81010452 -12.87719482 96.81308014 -12.88562012 95.7858429 C-12.91045963 92.48223472 -12.92698446 89.1786694 -12.94140625 85.875 C-12.94672993 84.74763805 -12.9520536 83.62027611 -12.9575386 82.45875168 C-12.98426096 76.49431793 -13.00364083 70.52990507 -13.01806641 64.56542969 C-13.03473291 58.39912674 -13.0795306 52.2333563 -13.13043785 46.06725502 C-13.16405279 41.33008188 -13.17563741 36.59303621 -13.18129349 31.85575485 C-13.18801935 29.58231907 -13.20327581 27.30889206 -13.2271843 25.03557205 C-13.25872096 21.85611422 -13.25888975 18.67810762 -13.25146484 15.49853516 C-13.26787018 14.5580986 -13.28427551 13.61766205 -13.30117798 12.64872742 C-13.25796065 8.13296131 -13.13466888 6.14485247 -10.3495636 2.4364624 C-6.87685429 -0.04093622 -4.10967682 -0.12906865 0 0 Z " fill="#FDFEDB" transform="translate(678.66796875,672.4765625)"/>
<path d="M0 0 C4.94995895 1.0861075 7.87996102 5.25545224 10.99804688 8.92773438 C15.31372323 13.87853312 19.9518656 18.49507988 24.61247253 23.11732483 C26.20525366 24.69713758 27.79471032 26.28023211 29.38342285 27.86413574 C32.75669188 31.22607486 36.13389477 34.58404444 39.51171875 37.94140625 C43.4314371 41.83737974 47.34944617 45.73504163 51.26322937 49.63697815 C52.81587113 51.1832218 54.37153278 52.72638005 55.92736816 54.26940918 C60.51730188 58.83583564 64.95752061 63.45760973 69.17004395 68.37487793 C72.74998435 72.39189994 76.60775333 76.14473811 80.42727661 79.93212891 C81.98645602 81.47833365 83.54230496 83.02782521 85.09741211 84.578125 C88.39935011 87.86873608 91.70522291 91.15537587 95.01171875 94.44140625 C98.84883351 98.2547713 102.6842355 102.06982774 106.51541138 105.88916016 C108.03481341 107.40216677 109.55723578 108.91208595 111.07983398 110.421875 C115.65613297 114.97423755 120.0825273 119.58601979 124.28326416 124.48809814 C127.67074642 128.31625573 131.34056877 131.8708152 134.97265625 135.46484375 C135.80382965 136.29223053 136.63500305 137.11961731 137.49136353 137.97207642 C140.12071983 140.58930946 142.75331018 143.20325096 145.38671875 145.81640625 C148.8765401 149.27970824 152.36308633 152.74625908 155.84765625 156.21484375 C156.6517392 157.01062836 157.45582214 157.80641296 158.28427124 158.62631226 C159.02239044 159.36112823 159.76050964 160.09594421 160.52099609 160.85302734 C161.17272797 161.4995224 161.82445984 162.14601746 162.49594116 162.81210327 C165.68355877 166.23846008 165.15158869 169.74562497 165.13813782 174.17228699 C165.14028187 175.39032958 165.14028187 175.39032958 165.14246923 176.63297909 C165.14591112 179.38579262 165.14196964 182.13854535 165.13793945 184.89135742 C165.13846556 186.87653172 165.13934427 188.86170595 165.1405468 190.84687996 C165.14217262 196.33338522 165.1366242 201.81986255 165.12929702 207.30636239 C165.12497847 210.81436635 165.12235041 214.32236784 165.12020302 217.83037376 C165.08306809 273.78977116 164.77798432 329.74812228 164.38482475 385.70602608 C164.36386873 388.69244497 164.34293505 391.67886401 164.32202148 394.6652832 C164.31682783 395.40576451 164.31163417 396.14624582 164.30628313 396.90916596 C164.22053345 409.17867765 164.14774519 421.44823497 164.07956632 433.71785555 C164.00811564 446.53904983 163.92560195 459.36013493 163.83205014 472.18118733 C163.78041934 479.29415868 163.73350777 486.40708794 163.69930077 493.5201664 C163.66756948 500.11336761 163.62092029 506.70634034 163.56384468 513.29937935 C163.54539619 515.71133315 163.53203579 518.12333192 163.524086 520.53534317 C163.51250966 523.81687247 163.48279923 527.09774681 163.44841003 530.37910461 C163.44936666 531.33500986 163.45032329 532.2909151 163.45130891 533.27578717 C163.37993818 538.11917626 163.23203644 541.54405406 160.01171875 545.44140625 C157.20910852 546.84271136 154.89827663 546.57060919 151.76187134 546.57511902 C150.78961422 546.57851735 150.78961422 546.57851735 149.79771554 546.58198434 C147.61593961 546.58833738 145.43422559 546.58749414 143.25244141 546.58666992 C141.69215311 546.58966062 140.13186555 546.59306294 138.57157898 546.59684753 C134.32569254 546.60570128 130.07982623 546.60802624 125.83393145 546.60866332 C122.2926132 546.60961145 118.75129967 546.61328869 115.20998323 546.61683542 C106.85613223 546.62498536 98.50229202 546.62741918 90.1484375 546.62670898 C81.52450798 546.62610818 72.90064101 546.63665926 64.27672732 546.65245265 C56.87880585 546.66551917 49.48090485 546.67089325 42.08297193 546.67025357 C37.66184568 546.66999831 33.24077497 546.67286529 28.81966019 546.68343163 C24.66153585 546.69309758 20.50352035 546.69320215 16.34539223 546.68591499 C14.81836476 546.68486724 13.29133057 546.68724329 11.76431465 546.69327545 C9.68125879 546.70097173 7.59858094 546.69636652 5.51553345 546.68864441 C4.34929758 546.68918918 3.18306171 546.68973394 1.98148537 546.69029522 C-1.01349584 546.43929308 -2.57434105 546.19939335 -4.98828125 544.44140625 C-8.3415915 540.32859667 -8.42715406 536.36330244 -8.41172791 531.26383972 C-8.4256768 530.02107601 -8.4256768 530.02107601 -8.43990749 528.75320596 C-8.46761885 525.94371 -8.47383675 523.13457111 -8.48022461 520.32495117 C-8.49563189 518.26949713 -8.51227651 516.21405206 -8.53003883 514.15861702 C-8.57550204 508.41412229 -8.60149201 502.66967282 -8.62425351 496.92504907 C-8.64645846 491.91931939 -8.67965703 486.91368531 -8.71275061 481.90801758 C-8.82794668 464.40107315 -8.90246673 446.89403346 -8.96929455 429.3868475 C-8.98530921 425.19525262 -9.00187851 421.00366015 -9.01862413 416.81206814 C-9.23113131 363.61003915 -9.37766313 310.40788177 -9.50569284 257.20559108 C-9.5405388 242.75920718 -9.57757955 228.31282999 -9.6159668 213.86645508 C-9.61869107 212.84106447 -9.62141534 211.81567386 -9.62422217 210.7592108 C-9.63519726 206.62994541 -9.64617681 202.50068004 -9.65716431 198.37141468 C-9.70246348 181.328868 -9.74633947 164.28631761 -9.78995395 147.24376655 C-9.79968673 143.44068635 -9.80946485 139.63760628 -9.81928372 135.8345263 C-9.83115167 131.23538011 -9.84290062 126.63623364 -9.85457536 122.03708696 C-9.85915428 120.2405868 -9.86377165 118.44408673 -9.86842821 116.64758677 C-9.89279097 107.23716464 -9.91436923 97.82675649 -9.92673588 88.41631031 C-9.93122204 85.20141893 -9.93591027 81.9865279 -9.94070435 78.77163696 C-9.94180726 77.99389091 -9.94291018 77.21614485 -9.94404652 76.41483074 C-9.95899163 66.70979544 -10.00834336 57.00584809 -10.10122234 47.3012448 C-10.15210906 41.97272619 -10.18627869 36.64412935 -10.22012317 31.31547582 C-10.23963449 28.88600412 -10.26627445 26.45657755 -10.30059731 24.02726996 C-10.34656842 20.76223904 -10.36878592 17.49788092 -10.38536072 14.23258972 C-10.40542124 13.28603669 -10.42548177 12.33948366 -10.44615018 11.3642472 C-10.44410424 5.10029866 -10.44410424 5.10029866 -8.20565128 1.86461353 C-5.48921207 0.12108133 -3.210346 -0.18395698 0 0 Z " fill="#FDFEDB" transform="translate(674.98828125,850.55859375)"/>
<path d="M0 0 C5.32785905 4.78637065 9.45127434 8.81929061 10.3359375 16.13671875 C10.65753932 23.81805444 8.51283495 28.86420456 3.5234375 34.6640625 C-3.95794639 41.86179203 -15.41361096 42.66002527 -25.1875 44.5625 C-109.56099209 61.57415437 -192.0911121 97.00273291 -262.9375 145.875 C-263.69595215 146.39529785 -264.4544043 146.9155957 -265.23583984 147.45166016 C-282.14013703 159.06854784 -298.33806297 171.41980848 -314.18164062 184.43945312 C-315.74235266 185.7154524 -317.31563112 186.97604655 -318.890625 188.234375 C-324.77304968 192.94719478 -330.33634078 197.92674218 -335.81689453 203.09570312 C-338.71626655 205.82912928 -341.6470056 208.50154517 -344.66894531 211.09936523 C-348.84099866 214.74202667 -352.78221938 218.57489158 -356.69140625 222.49609375 C-357.39595444 223.19968521 -358.10050262 223.90327667 -358.82640076 224.62818909 C-360.30403367 226.10514648 -361.78042457 227.58334742 -363.25561523 229.06274414 C-365.49416481 231.30665085 -367.73800473 233.54516704 -369.98242188 235.78320312 C-371.42740404 237.22884618 -372.87207592 238.67479945 -374.31640625 240.12109375 C-375.30732018 241.10897133 -375.30732018 241.10897133 -376.31825256 242.11680603 C-380.72187949 246.54231564 -384.87681563 251.13395405 -388.9375 255.875 C-389.91142936 257.00393125 -390.88538284 258.13284169 -391.859375 259.26171875 C-394.37900787 262.19865483 -396.89174092 265.14148193 -399.40429688 268.08447266 C-400.84183277 269.76327652 -402.28696321 271.43518025 -403.734375 273.10546875 C-410.29641122 280.71450012 -416.38005758 288.61609397 -422.33544922 296.70654297 C-423.98481523 298.93904356 -425.64924337 301.15967116 -427.31640625 303.37890625 C-451.852108 336.1621345 -472.51371704 371.35104325 -490.9375 407.875 C-491.4207373 408.83067871 -491.90397461 409.78635742 -492.40185547 410.77099609 C-519.13338955 464.03478764 -537.74610133 521.98930259 -548.64257812 580.50488281 C-552.48092111 600.93671401 -552.48092111 600.93671401 -560.58203125 607.1328125 C-566.57474117 610.74105468 -573.14535484 610.95575749 -579.9375 609.875 C-586.62936484 607.18253162 -590.98604248 602.38401792 -593.9375 595.875 C-596.56976051 586.91249711 -594.4138856 577.66122357 -592.5625 568.75 C-592.30065918 567.4702832 -592.03881836 566.19056641 -591.76904297 564.87207031 C-586.44327181 539.26771225 -580.0607776 513.76692915 -571.92626953 488.90722656 C-570.90830865 485.78547985 -569.92019646 482.65522224 -568.93359375 479.5234375 C-554.31056767 433.73108739 -534.02604429 389.42137577 -509.9375 347.875 C-509.31568848 346.79766602 -508.69387695 345.72033203 -508.05322266 344.61035156 C-495.74107164 323.33292169 -482.54875201 302.65497523 -467.9375 282.875 C-467.47424316 282.24722656 -467.01098633 281.61945313 -466.53369141 280.97265625 C-457.34124022 268.55058852 -447.95928917 256.29349131 -437.91064453 244.54907227 C-435.12289904 241.29076483 -432.41870598 237.9824043 -429.75 234.625 C-424.41397394 228.05832289 -418.54273287 221.99924882 -412.71484375 215.87109375 C-409.91468062 212.92330181 -407.18095605 209.93223059 -404.5 206.875 C-400.28786472 202.150578 -395.84140492 197.66972114 -391.375 193.1875 C-390.66609619 192.47400391 -389.95719238 191.76050781 -389.22680664 191.02539062 C-385.23571935 187.0458717 -381.14607201 183.24971186 -376.87768555 179.57006836 C-373.70977316 176.80238046 -370.67778737 173.89322554 -367.625 171 C-362.48515042 166.16646533 -357.25454566 161.54937054 -351.73828125 157.14453125 C-349.06152356 154.97549886 -346.45268629 152.74693286 -343.85107422 150.48925781 C-336.75524319 144.33295123 -329.4644661 138.49587672 -321.9375 132.875 C-321.26154785 132.36775391 -320.5855957 131.86050781 -319.88916016 131.33789062 C-300.18133087 116.57355577 -280.08445061 102.5066563 -258.9375 89.875 C-257.55256348 89.04452148 -257.55256348 89.04452148 -256.13964844 88.19726562 C-210.29335318 60.79883227 -162.42452099 38.58973839 -111.83621216 21.51721191 C-109.915128 20.86743299 -107.99646444 20.21083195 -106.07788086 19.55371094 C-98.16417177 16.85918668 -90.21380324 14.48447211 -82.125 12.375 C-79.83700304 11.77172973 -77.5492426 11.16756177 -75.26171875 10.5625 C-74.16907715 10.27375 -73.07643555 9.985 -71.95068359 9.6875 C-69.44140942 9.01087835 -66.94735937 8.30501572 -64.45703125 7.5625 C-55.02581775 4.7586871 -45.47177055 2.58375411 -35.84936523 0.54736328 C-34.34644347 0.22871242 -32.84429411 -0.09360767 -31.34301758 -0.41992188 C-7.61037026 -5.55130508 -7.61037026 -5.55130508 0 0 Z " fill="#FB664B" transform="translate(906.9375,317.125)"/>
<path d="M0 0 C5.71040002 1.99520001 9.61417594 6.06637066 13 11 C15.97264593 17.68646095 17.20541487 24.52965548 18.50360107 31.7069397 C22.28201352 52.49193378 27.57489491 72.48480416 33.94116211 92.62890625 C34.68863893 95.00869873 35.42542141 97.39186299 36.15454102 99.77734375 C39.11994051 109.46605779 42.40155164 119.00508375 45.9375 128.5 C46.21622955 129.24911652 46.49495911 129.99823303 46.78213501 130.77005005 C60.44283475 167.33393865 77.12708988 202.96785013 97.39599609 236.34765625 C99.00047968 239.00079318 100.57603457 241.66920543 102.14453125 244.34375 C107.92701892 254.16992891 114.00138482 263.69883651 120.58935547 273.00390625 C122.07069997 275.10004205 123.5381191 277.20546042 125.00390625 279.3125 C130.7183258 287.50283315 136.57431563 295.54237834 142.74365234 303.39648438 C144.05156927 305.06581947 145.34862375 306.74320402 146.64453125 308.421875 C155.30434651 319.59819116 164.4746711 330.29677755 173.98046875 340.76171875 C175.89152427 342.87977448 177.76205583 345.02714567 179.625 347.1875 C182.37408889 350.34831879 185.27445501 353.29619417 188.26171875 356.23046875 C190.02957316 358.03010481 191.67254542 359.89601912 193.3125 361.8125 C199.40257176 368.85841262 206.06527602 375.30435443 213.13671875 381.35546875 C215.00451793 383.00398752 216.75455624 384.72303581 218.5 386.5 C222.16287506 390.21204116 226.04149094 393.60791175 230 397 C231.01981151 397.8837913 232.03931988 398.76793245 233.05859375 399.65234375 C247.87044195 412.47136419 263.10932371 424.54268886 279 436 C279.71800781 436.51949219 280.43601562 437.03898437 281.17578125 437.57421875 C311.4822777 459.44662528 343.71426913 478.07352913 377 495 C377.88155762 495.44956055 378.76311523 495.89912109 379.67138672 496.36230469 C415.73829981 514.59511929 454.74353906 529.12106704 493.81835938 539.41894531 C495.93322601 539.98221552 498.03684855 540.57647198 500.140625 541.1796875 C508.14996238 543.43000893 516.21129457 545.27877373 524.359375 546.94921875 C525.62171715 547.20913605 525.62171715 547.20913605 526.90956116 547.4743042 C531.18642262 548.35272168 535.46552829 549.21634758 539.74975586 550.05810547 C541.35797568 550.38346538 542.96613257 550.70913651 544.57421875 551.03515625 C545.66866302 551.24285896 545.66866302 551.24285896 546.78521729 551.45475769 C553.76107996 552.88991023 560.26843871 555.35751344 564.875 561 C565.42929687 561.66 565.98359375 562.32 566.5546875 563 C570.16113167 567.99053896 570.64706458 571.94745749 570 578 C568.54292258 583.95593691 566.09946231 588.75598929 561.046875 592.4140625 C541.85306672 603.79052502 511.733847 590.53348676 491.6875 585.4375 C490.96268433 585.2542215 490.23786865 585.07094299 489.49108887 584.8821106 C480.66779867 582.63994004 472.01913196 580.11700793 463.41479492 577.13916016 C459.83945203 575.94644192 456.2604151 574.93062587 452.625 573.9375 C428.43604888 567.02711448 404.90712161 557.29680004 382 547 C380.83629883 546.47792969 379.67259766 545.95585938 378.47363281 545.41796875 C341.39685058 528.69527191 305.51537285 509.10839888 272 486 C270.92830566 485.26426758 270.92830566 485.26426758 269.83496094 484.51367188 C258.63657123 476.81165313 247.66437683 468.87830186 236.94775391 460.51855469 C235.07798897 459.06080364 233.20184626 457.61166418 231.32421875 456.1640625 C223.60388964 450.18607275 216.15251417 443.93916592 208.78076172 437.53808594 C206.94747613 435.95463389 205.10260206 434.38573654 203.25390625 432.8203125 C192.46888796 423.67667721 192.46888796 423.67667721 187.6640625 418.66308594 C186.05622546 417.05619246 184.39087369 415.60399366 182.65234375 414.140625 C176.92102818 409.15655856 171.60380972 403.75312299 166.24536133 398.37573242 C164.44137915 396.56639067 162.63211335 394.76245681 160.82226562 392.95898438 C155.52373058 387.66350379 150.28131665 382.37325381 145.42114258 376.66625977 C143.23265223 374.10030089 140.92359296 371.65520866 138.625 369.1875 C133.50765377 363.64678886 128.72535753 357.87892582 124 352 C122.6047661 350.31200435 121.20891764 348.62451652 119.8125 346.9375 C67.23320342 282.56215253 26.98719672 209.47965818 -0.83349609 131.26025391 C-1.85380478 128.40860002 -2.89803549 125.56791379 -3.95703125 122.73046875 C-8.92313777 109.2608114 -12.46268906 95.45793437 -16.04931641 81.57250977 C-16.96946004 78.11476405 -17.96116071 74.68589026 -18.97265625 71.25390625 C-21.21133085 63.48474105 -23.00417917 55.63805733 -24.71972656 47.73999023 C-25.25218934 45.30247763 -25.80169289 42.8691838 -26.3515625 40.43554688 C-31.2493406 18.29111579 -31.2493406 18.29111579 -26.4140625 9.85546875 C-19.07035298 0.21938582 -11.57545403 -1.052314 0 0 Z " fill="#FB664B" transform="translate(353,1127)"/>
<path d="M0 0 C1.78083984 0.48533203 1.78083984 0.48533203 3.59765625 0.98046875 C7.07407218 1.95833546 10.53599259 2.9790671 14 4 C15.249021 4.3606958 16.49804199 4.7213916 17.78491211 5.09301758 C28.12299017 8.08472438 38.35840722 11.33069528 48.5625 14.75 C49.34302734 15.01111572 50.12355469 15.27223145 50.92773438 15.54125977 C84.3295468 26.73521542 116.48001699 40.29790053 148 56 C149.0734668 56.53206055 150.14693359 57.06412109 151.25292969 57.61230469 C167.34724224 65.63197921 182.70816125 74.63286667 197.96728516 84.11572266 C200.55957067 85.72635376 203.1582129 87.32557735 205.76171875 88.91796875 C215.06210527 94.62925407 224.08486693 100.70598284 233 107 C233.71414063 107.50402344 234.42828125 108.00804687 235.1640625 108.52734375 C250.27796322 119.23524868 265.00757987 130.41755055 279.05859375 142.4921875 C281.8345394 144.85893001 284.65563193 147.15382031 287.5 149.4375 C293.30087286 154.15756976 298.74068405 159.22771397 304.19458008 164.33813477 C305.47548575 165.51719155 306.77123497 166.68021347 308.0769043 167.83178711 C315.546676 174.42742832 322.58109945 181.4290332 329.61450195 188.48413086 C331.69044426 190.56545189 333.77170422 192.64134813 335.85351562 194.71679688 C337.19823752 196.06217938 338.54264929 197.40787194 339.88671875 198.75390625 C340.49730637 199.36246964 341.10789398 199.97103302 341.73698425 200.59803772 C345.47636896 204.35747412 349.02662316 208.23788608 352.4907074 212.25259399 C354.41170362 214.47665601 356.39217473 216.64354745 358.375 218.8125 C362.19597138 223.05088843 365.84247331 227.39879103 369.4296875 231.8359375 C371.35180461 234.2128481 373.29965269 236.56675943 375.2578125 238.9140625 C434.81688816 310.41314497 481.11206265 396.40216053 514.19482422 514.83935547 C514.91025603 517.6477182 515.64067972 520.45147015 516.37890625 523.25390625 C528.98857042 571.54252802 528.98857042 571.54252802 523.5 584.5625 C520.68930938 589.07968135 516.20166079 593.87776838 511.10546875 595.6640625 C504.44137317 596.72735048 498.07583061 597.21166361 492.125 593.625 C484.24100687 587.29674322 481.24977592 579.18643742 480 569.4375 C478.24482488 557.87327444 475.66638819 546.63868133 472.82080078 535.29931641 C471.97399591 531.89547316 471.15476227 528.4858268 470.33984375 525.07421875 C466.83693809 510.5363049 462.81788477 496.27902067 458.04589844 482.10644531 C457.34495719 480.02456472 456.65035509 477.94053974 455.96191406 475.85449219 C429.54540724 395.81715419 386.63750871 320.05079473 331.28369141 256.47460938 C330.21020096 255.24146326 329.14160782 254.00405613 328.07421875 252.765625 C323.31833359 247.27195336 318.3898985 241.93570184 313.46484375 236.59423828 C312.0328795 235.03578386 310.60924296 233.47012229 309.1875 231.90234375 C303.51485057 225.66835356 297.69872281 219.59656258 291.75 213.625 C290.776073 212.64418457 290.776073 212.64418457 289.7824707 211.64355469 C285.94855398 207.82180603 281.99904132 204.19408498 277.90185547 200.65673828 C275.09870043 198.21486279 272.39875826 195.66776681 269.6875 193.125 C264.94500684 188.71773789 260.09950345 184.50935609 255.046875 180.45703125 C252.74471342 178.60054454 250.46817659 176.72504376 248.203125 174.82421875 C237.78117867 166.09898304 227.03551465 157.93192124 216 150 C215.26749023 149.47132324 214.53498047 148.94264648 213.78027344 148.39794922 C189.60094952 130.98119468 164.13581047 115.51546678 137.83618164 101.51489258 C135.7419118 100.3962781 133.65339679 99.26687385 131.56811523 98.1315918 C122.63849799 93.28483221 113.57177844 88.86698185 104.3125 84.6875 C103.60810791 84.36806427 102.90371582 84.04862854 102.17797852 83.71951294 C83.61609636 75.31819432 64.71281513 67.7769983 45.41796875 61.21875 C42 60 42 60 38.625 58.51171875 C34.41962709 56.75796949 30.19919325 55.52142454 25.8125 54.3125 C23.94910007 53.79078828 22.08582559 53.26862835 20.22265625 52.74609375 C19.22508301 52.46749512 18.22750977 52.18889648 17.19970703 51.90185547 C13.79360885 50.94182749 10.39447444 49.95964317 6.99609375 48.97265625 C4.58087262 48.27294216 2.1655072 47.57372592 -0.25 46.875 C-1.44423584 46.52953125 -2.63847168 46.1840625 -3.86889648 45.828125 C-10.46208356 43.94240706 -17.04723019 42.25440587 -23.75 40.8125 C-31.80758416 39.01112111 -37.22553703 36.58773279 -42.5 30.125 C-46.30877371 23.86772891 -46.14755719 17.06130193 -45 10 C-42.54824714 3.97068939 -38.68236925 0.03059693 -33 -3 C-22.26280681 -6.5790644 -10.50517489 -2.87370274 0 0 Z " fill="#FB664B" transform="translate(1198,335)"/>
<path d="M0 0 C4.36632647 3.22963817 8.09254048 7.00418393 9.828125 12.2109375 C9.8590625 13.78875 9.8590625 13.78875 9.890625 15.3984375 C9.97957031 16.47931641 9.97957031 16.47931641 10.0703125 17.58203125 C10.54766917 26.80624699 8.09127111 35.52102726 5.890625 44.3984375 C5.7251416 45.07567871 5.5596582 45.75291992 5.38916016 46.45068359 C4.58689541 49.73252706 3.765907 53.00895228 2.92578125 56.28125 C2.22174056 59.03824968 1.56830761 61.80086805 0.94921875 64.578125 C-12.8903783 125.216014 -40.1472754 184.79152761 -71.109375 238.3984375 C-71.76655518 239.5445752 -71.76655518 239.5445752 -72.43701172 240.71386719 C-83.65442901 260.26536722 -95.94556486 279.10539436 -109.109375 297.3984375 C-109.69219238 298.20941895 -110.27500977 299.02040039 -110.87548828 299.85595703 C-118.48676306 310.40838133 -126.39143706 320.65901347 -134.68994141 330.67919922 C-136.68157529 333.09149468 -138.64255919 335.52839117 -140.609375 337.9609375 C-152.24393897 352.13857556 -164.42892772 365.90990894 -177.51806641 378.76538086 C-179.14175571 380.43166771 -180.62948204 382.16657373 -182.109375 383.9609375 C-186.22273192 388.74738919 -190.87337585 392.94885016 -195.515625 397.21118164 C-199.26875082 400.6588773 -202.92730213 404.17100711 -206.5 407.8059082 C-209.55871307 410.83260501 -212.84919374 413.59292495 -216.109375 416.3984375 C-217.19202413 417.34434535 -218.27399943 418.29102473 -219.35546875 419.23828125 C-233.82688827 431.89072782 -248.60281182 444.03436838 -264.109375 455.3984375 C-264.79016113 455.90165527 -265.47094727 456.40487305 -266.17236328 456.92333984 C-336.49136519 508.8726281 -420.06481359 552.85692309 -505.79345703 572.83642578 C-508.85631141 573.57969911 -511.87678494 574.44675436 -514.90380859 575.32299805 C-522.56035108 577.53758135 -530.27295915 579.45329667 -538.046875 581.2109375 C-538.98208984 581.43015869 -539.91730469 581.64937988 -540.88085938 581.87524414 C-549.37752858 583.74122952 -558.46401862 585.27363286 -566.32421875 580.73828125 C-570.56960449 577.55191952 -574.16338979 573.36466219 -576.109375 568.3984375 C-576.98076109 560.95037952 -577.21689837 554.07527356 -572.515625 547.9375 C-564.93239325 539.63807415 -554.71843439 537.97922254 -544.12304688 535.96435547 C-528.96131726 533.07070428 -514.2411869 528.98282748 -499.57910156 524.18920898 C-496.7400874 523.28019684 -493.88825129 522.41847058 -491.03515625 521.5546875 C-456.14920565 510.84526485 -422.69548093 496.74785221 -390.109375 480.3984375 C-388.9435791 479.81416992 -387.7777832 479.22990234 -386.57666016 478.62792969 C-357.09361732 463.77362712 -328.82178107 446.81513176 -302.109375 427.3984375 C-301.3452832 426.84687988 -300.58119141 426.29532227 -299.79394531 425.72705078 C-289.2030515 418.07423412 -278.89643505 410.15612446 -268.83300781 401.82226562 C-266.39707435 399.81003277 -263.93895025 397.82536 -261.484375 395.8359375 C-244.11506416 381.56828931 -227.89542035 366.26475382 -211.984375 350.3984375 C-211.44517426 349.86191559 -210.90597351 349.32539368 -210.35043335 348.77261353 C-204.38387036 342.82858777 -198.55612916 336.82918875 -193.109375 330.3984375 C-192.06398927 329.19531894 -191.01712156 327.99348641 -189.96875 326.79296875 C-187.21870822 323.62797467 -184.47572574 320.45692499 -181.73632812 317.28271484 C-180.71029821 316.09440468 -179.68311214 314.90709088 -178.65429688 313.72119141 C-170.73432155 304.58167507 -163.36493746 295.07113162 -156.109375 285.3984375 C-155.5431543 284.64788086 -154.97693359 283.89732422 -154.39355469 283.12402344 C-111.94934999 226.77940161 -80.00094224 163.90111609 -56.26806641 97.61865234 C-55.17844196 94.59038718 -54.06305843 91.57265356 -52.9453125 88.5546875 C-51.32149038 84.09121257 -49.95105737 79.61266856 -48.734375 75.0234375 C-48.30837883 73.44632053 -47.8812503 71.86950908 -47.453125 70.29296875 C-47.12441406 69.08181396 -47.12441406 69.08181396 -46.7890625 67.84619141 C-46.12140139 65.44174807 -45.41940047 63.05052886 -44.703125 60.66015625 C-42.31519458 52.64135767 -40.11340037 44.62695391 -38.3125 36.453125 C-38.16017914 35.76327011 -38.00785828 35.07341522 -37.85092163 34.36265564 C-37.09738668 30.93132427 -36.36068605 27.4972853 -35.64501953 24.05786133 C-33.43491307 13.78001575 -31.20394492 5.47480949 -22.109375 -0.6015625 C-15.12123622 -4.0179859 -6.75026428 -3.86905392 0 0 Z " fill="#FB664B" transform="translate(1718.109375,1145.6015625)"/>
<path d="M0 0 C8.7354904 8.13357499 14.93136687 19.269468 15.62109375 31.3125 C15.82566215 38.44901475 15.565445 45.48929514 13.3125 52.3125 C13.05597656 53.11945313 12.79945312 53.92640625 12.53515625 54.7578125 C7.89810749 67.77339143 -1.9020329 76.67673226 -13.6875 83.3125 C-13.68988835 84.588405 -13.69227671 85.86431 -13.69473743 87.17887878 C-13.7521133 117.47509536 -13.82485523 147.7712318 -13.91648628 178.06736267 C-13.92775427 181.79734952 -13.93889275 185.52733674 -13.94995117 189.25732422 C-13.95215486 189.99988881 -13.95435854 190.74245341 -13.956629 191.50751996 C-13.99198889 203.5266105 -14.01686041 215.54570098 -14.03784702 227.56482422 C-14.0596195 239.90011981 -14.09268366 252.23534798 -14.13620156 264.5705862 C-14.16269338 272.18038187 -14.18040692 279.79009355 -14.18684604 287.39993304 C-14.19273001 293.23790958 -14.21433414 299.07576198 -14.24177551 304.91367912 C-14.250569 307.30656547 -14.25427562 309.69947676 -14.25250816 312.09237862 C-14.25085619 315.36096028 -14.26754914 318.62895922 -14.28877258 321.89746094 C-14.28392501 322.84300433 -14.27907743 323.78854773 -14.27408296 324.76274395 C-14.36867351 333.59803127 -16.68024079 340.1011066 -22.80859375 346.61328125 C-27.7184441 351.0535825 -32.8904935 351.83685275 -39.26953125 351.5859375 C-46.10186215 350.81329911 -49.78077563 347.61649157 -54.109375 342.640625 C-58.5612254 336.07304371 -59.11885587 330.66002373 -59.04826355 322.90382385 C-59.05082682 321.86878768 -59.0533901 320.83375152 -59.05603105 319.76735061 C-59.06096418 316.30641081 -59.04448331 312.84590925 -59.02807617 309.38500977 C-59.0272298 306.90125031 -59.02770524 304.4174901 -59.02940369 301.93373108 C-59.03008638 296.59010264 -59.02158884 291.24661007 -59.00469017 285.90301704 C-58.98027377 278.17717215 -58.97249221 270.45138035 -58.9687262 262.72550105 C-58.96216585 250.18977326 -58.94221601 237.65410415 -58.91381836 225.1184082 C-58.886267 212.94360649 -58.86503869 200.76882074 -58.85229492 188.59399414 C-58.85150675 187.84311032 -58.85071858 187.0922265 -58.84990653 186.31858862 C-58.84599132 182.55149721 -58.84220022 178.78440568 -58.83847082 175.01731408 C-58.80738788 143.78233339 -58.7543399 112.54742562 -58.6875 81.3125 C-59.4616626 81.02060791 -60.2358252 80.72871582 -61.03344727 80.42797852 C-72.73040101 75.51183634 -79.13003688 63.27180405 -83.70703125 52.20703125 C-88.20631104 38.92429689 -86.09783857 25.57772054 -80.21484375 13.21875 C-73.1222281 -0.061041 -62.21018277 -7.55115234 -48.25 -12.5625 C-30.6719666 -17.21550884 -13.59401347 -11.19103129 0 0 Z " fill="#FCFDDA" transform="translate(1059.6875,1383.6875)"/>
<path d="M0 0 C7.62617086 3.5026499 13.71474525 9.27839145 17 17 C17.43348885 20.36810398 17.43348885 20.36810398 17.51419067 24.1231842 C17.54147755 25.16709936 17.54147755 25.16709936 17.56931567 26.23210371 C17.62525596 28.56101322 17.65916645 30.88965025 17.69189453 33.21899414 C17.72527027 34.90622803 17.75920171 36.593451 17.79364204 38.28066349 C18.14648367 57.26612106 18.05173954 76.2565603 17.96907961 95.24406224 C17.93432326 103.41069546 17.91845123 111.57720795 17.91360474 119.74391174 C17.91287205 120.94419854 17.91213936 122.14448534 17.91138446 123.38114446 C17.90873298 128.29857644 17.90668665 133.21600849 17.9049089 138.13344085 C17.8991021 151.98968552 17.874496 165.8453664 17.79785156 179.70141602 C17.73650384 190.81604235 17.71374502 201.92998494 17.73666394 213.04476792 C17.74728305 218.89850589 17.73844453 224.75073593 17.68233871 230.60424614 C17.63024676 236.07929235 17.6292481 241.55194807 17.66770744 247.02708435 C17.67270171 249.03185487 17.65889435 251.03677448 17.62482262 253.04126167 C17.02600301 263.59892682 17.02600301 263.59892682 21.38583755 272.63139534 C24.23166783 274.53440911 24.23166783 274.53440911 27.21917915 275.76040745 C35.917917 279.63800016 40.56115707 289.64044433 44 298 C47.87697423 308.34481104 47.64915911 322.34557487 43.25390625 332.453125 C42.84011719 333.29359375 42.42632813 334.1340625 42 335 C41.36384766 336.38445312 41.36384766 336.38445312 40.71484375 337.796875 C36.10269737 347.09825099 29.47512261 354.55249347 20 359 C19.34 359 18.68 359 18 359 C18 359.66 18 360.32 18 361 C17.34773438 361.19335938 16.69546875 361.38671875 16.0234375 361.5859375 C14.71246094 361.97652344 14.71246094 361.97652344 13.375 362.375 C12.08722656 362.75785156 12.08722656 362.75785156 10.7734375 363.1484375 C8.85058573 363.73883424 6.94555206 364.38929154 5.05859375 365.0859375 C-6.48362684 368.53533676 -18.37134354 365.31227713 -28.76391602 360.08056641 C-40.18886633 353.89998242 -49.96642574 342.19463494 -54 329.8125 C-57.12942282 315.63805544 -55.34730988 301.56865784 -48.375 288.8125 C-43.62108457 281.4161798 -36.86065381 274.11748533 -29 270 C-27.68 270 -26.36 270 -25 270 C-25.01030746 269.2773848 -25.02061493 268.55476959 -25.03123474 267.81025696 C-25.85658588 209.65949285 -26.47987129 151.50707562 -26.92522621 93.35215759 C-26.97856395 86.47769165 -27.04020516 79.60334707 -27.10742188 72.72900391 C-27.17907612 65.38051938 -27.23759686 58.03211287 -27.27481747 50.68336868 C-27.29305276 47.1218015 -27.31733172 43.56058177 -27.35916138 39.99920654 C-27.40349792 36.20128594 -27.41648931 32.40364611 -27.42578125 28.60546875 C-27.4519754 26.98865959 -27.4519754 26.98865959 -27.47869873 25.33918762 C-27.4569757 17.84682997 -26.04512742 12.41387331 -21 6.7578125 C-20.34 6.21898437 -19.68 5.68015625 -19 5.125 C-18.34 4.57070313 -17.68 4.01640625 -17 3.4453125 C-11.56470788 -0.48253532 -6.60635401 -1.02805238 0 0 Z " fill="#FBFCDA" transform="translate(1031,327)"/>
<path d="M0 0 C3.80173757 3.49759857 6.6608901 7.53342165 7.37109375 12.69921875 C7.55313236 20.89095611 6.10543962 26.38571716 0.61328125 32.55859375 C-5.01986058 37.75960415 -12.62082344 39.34359852 -19.9609375 40.61328125 C-20.70077881 40.74813934 -21.44062012 40.88299744 -22.20288086 41.02194214 C-23.77884131 41.3091743 -25.35533471 41.59349565 -26.93231201 41.87509155 C-43.07742926 44.7661733 -59.07617212 48.05244541 -75 52 C-75.71091797 52.17595703 -76.42183594 52.35191406 -77.15429688 52.53320312 C-81.45815325 53.61244427 -85.73224065 54.78745306 -90 56 C-90.80920898 56.2273584 -91.61841797 56.4547168 -92.45214844 56.68896484 C-138.59078836 69.6983568 -183.46460696 85.99311462 -226.828125 106.5 C-230.01709276 108.00808328 -233.21161151 109.50397417 -236.40625 111 C-250.22646532 117.51086642 -263.68543971 124.51410326 -277 132 C-278.0921582 132.60859863 -279.18431641 133.21719727 -280.30957031 133.84423828 C-295.66833508 142.41160987 -310.65114168 151.37490913 -325.26953125 161.17089844 C-328.01719906 163.0115214 -330.77306167 164.83924978 -333.53125 166.6640625 C-340.28687467 171.14119867 -347.03787496 175.62194608 -353.69140625 180.25 C-354.42174072 180.75756836 -355.1520752 181.26513672 -355.90454102 181.78808594 C-357.25348586 182.72918832 -358.59929706 183.67480672 -359.94116211 184.62597656 C-367.93797496 190.21694573 -374.65946606 191.05711061 -384.1875 189.5 C-390.30995347 187.76489173 -393.50955631 182.1635473 -396.9375 177.1875 C-398.94261641 171.17215078 -399.09729615 164.70764518 -396.5625 158.8125 C-391.31932133 150.15937255 -381.84905256 144.63475616 -373.5625 139.25 C-371.42176509 137.84261508 -369.28114094 136.43506168 -367.140625 135.02734375 C-366.09455078 134.34269043 -365.04847656 133.65803711 -363.97070312 132.95263672 C-360.61696977 130.74823506 -357.28862821 128.50836581 -353.96313477 126.26171875 C-326.53652136 107.78012297 -297.76818797 91.60435391 -268.28759766 76.66943359 C-265.34448177 75.17492695 -262.41105887 73.66339855 -259.48046875 72.14453125 C-218.58947038 51.10487621 -174.97387902 34.33071812 -131 21 C-130.12553223 20.7326001 -129.25106445 20.4652002 -128.35009766 20.18969727 C-98.23554601 11.02938856 -67.70895256 3.62382199 -36.84375 -2.50390625 C-36.15064224 -2.64196686 -35.45753448 -2.78002747 -34.74342346 -2.92227173 C-10.81435053 -7.59980964 -10.81435053 -7.59980964 0 0 Z " fill="#FB664B" transform="translate(896,163)"/>
<path d="M0 0 C6.37317632 3.56821548 10.7579167 7.8440626 13.109375 14.8984375 C14.02095178 22.3404906 12.38055211 28.56837859 7.85058594 34.56469727 C4.53846096 38.61545446 0.9981933 41.72873568 -3.390625 44.5859375 C-4.05296143 45.0288916 -4.71529785 45.4718457 -5.39770508 45.92822266 C-6.95840185 46.97028106 -8.52222657 48.00766302 -10.08837891 49.04150391 C-13.36079564 51.21000031 -16.61587818 53.40346764 -19.87109375 55.59765625 C-34.35362715 65.34503642 -48.90516897 74.93530558 -63.890625 83.8984375 C-64.81439941 84.45160645 -65.73817383 85.00477539 -66.68994141 85.57470703 C-135.11626245 126.3777072 -211.30521759 161.4653811 -289.078125 180.0234375 C-291.13673706 180.52596667 -293.19533082 181.02857082 -295.25390625 181.53125 C-296.22537598 181.76618164 -297.1968457 182.00111328 -298.19775391 182.24316406 C-300.48821841 182.80051735 -302.77450697 183.37031648 -305.05859375 183.953125 C-317.61731592 187.15566532 -330.24897635 190.04387168 -342.890625 192.8984375 C-343.69580566 193.0835791 -344.50098633 193.2687207 -345.33056641 193.45947266 C-357.75743924 196.30062913 -368.3291056 198.1984257 -379.515625 191.2734375 C-384.61298976 186.17607274 -387.19417773 181.10064575 -387.515625 173.8359375 C-387.24002779 167.97391046 -385.71484193 164.29431572 -381.890625 159.8984375 C-381.45234375 159.34414062 -381.0140625 158.78984375 -380.5625 158.21875 C-374.95229153 152.28373998 -366.55425561 151.43116362 -358.890625 149.8984375 C-357.97394043 149.71458496 -357.05725586 149.53073242 -356.11279297 149.34130859 C-351.99132752 148.51920232 -347.86874762 147.70298091 -343.74462891 146.89428711 C-327.53699614 143.68751377 -311.4695792 139.86883113 -295.6640625 135.046875 C-292.06358703 133.95107812 -288.45132072 132.91618911 -284.828125 131.8984375 C-272.08809094 128.2692003 -259.48298903 124.19418835 -246.953125 119.8984375 C-246.28030487 119.66777588 -245.60748474 119.43711426 -244.91427612 119.19946289 C-211.30276756 107.62844037 -178.80085922 93.53763595 -146.890625 77.8984375 C-145.81635254 77.37491699 -144.74208008 76.85139648 -143.63525391 76.31201172 C-128.06178173 68.70915964 -112.85580828 60.63680432 -97.890625 51.8984375 C-96.45662354 51.06868408 -96.45662354 51.06868408 -94.99365234 50.22216797 C-71.63489484 36.6716793 -48.76462721 21.85603614 -27.13891602 5.66552734 C-18.7467337 -0.58431702 -10.40034194 -3.96337355 0 0 Z " fill="#FB664B" transform="translate(1544.890625,1700.1015625)"/>
<path d="M0 0 C1.32079384 0.32264418 2.64184364 0.64424213 3.96313477 0.96484375 C7.85560408 1.9148038 11.74029928 2.89376281 15.625 3.875 C16.69766113 4.14151367 17.77032227 4.40802734 18.87548828 4.68261719 C33.27655099 8.26473813 47.49278821 12.35031081 61.625 16.875 C62.34147705 17.10380859 63.0579541 17.33261719 63.79614258 17.56835938 C98.84208545 28.77600116 133.17891794 41.49301495 166.625 56.875 C167.26524109 57.16826172 167.90548218 57.46152344 168.56512451 57.76367188 C186.05105449 65.77358663 203.31729326 73.98213683 220.07275391 83.44824219 C222.71433746 84.92494147 225.37442244 86.36171159 228.04296875 87.7890625 C260.28987063 105.0565372 291.16943069 125.19621409 320.625 146.875 C321.3252832 147.38804687 322.02556641 147.90109375 322.74707031 148.4296875 C325.02763719 150.10834234 327.29642279 151.80184784 329.5625 153.5 C330.26093018 154.01449707 330.95936035 154.52899414 331.67895508 155.05908203 C344.40285051 164.69927526 344.40285051 164.69927526 345.625 171.875 C346.4634422 178.90648122 346.5367334 184.45315276 342.4375 190.4375 C339.05616577 194.62003391 336.15666734 198.19988871 330.8125 199.625 C329.760625 199.7075 328.70875 199.79 327.625 199.875 C326.3875 199.99875 325.15 200.1225 323.875 200.25 C314.25675368 199.97931765 306.76862956 192.85120723 299.54882812 187.22094727 C275.02699202 168.11285129 248.44290017 151.53232837 221.625 135.875 C220.24127197 135.06434082 220.24127197 135.06434082 218.82958984 134.23730469 C171.24460171 106.48294882 121.01206757 84.6357418 68.97593689 66.734375 C65.26674176 65.45600092 61.5819053 64.12538513 57.90625 62.75390625 C52.22721272 60.67538704 46.45554747 59.03280511 40.625 57.4375 C39.52833008 57.13457031 38.43166016 56.83164063 37.30175781 56.51953125 C34.07778782 55.63197579 30.85185594 54.75199784 27.625 53.875 C26.78904297 53.6466748 25.95308594 53.41834961 25.09179688 53.18310547 C12.1861188 49.6711135 -0.81567714 46.54661003 -13.8203125 43.42578125 C-14.94767822 43.15491699 -16.07504395 42.88405273 -17.23657227 42.60498047 C-19.97495155 41.968049 -22.71713026 41.39597388 -25.47265625 40.83984375 C-31.79583376 39.44597009 -35.88446925 35.83622467 -39.75 30.75 C-40.28625 29.80125 -40.8225 28.8525 -41.375 27.875 C-41.72949219 27.26269531 -42.08398438 26.65039062 -42.44921875 26.01953125 C-44.56323141 21.12251459 -44.20656976 15.35810598 -42.53515625 10.3671875 C-33.69196165 -7.20010143 -16.2793558 -4.1036279 0 0 Z " fill="#FB664B" transform="translate(1219.375,171.125)"/>
<path d="M0 0 C5.57202105 4.22962209 8.81251906 8.537218 10.04296875 15.55078125 C10.47257312 22.8793264 9.01891439 29.59204574 7.48046875 36.73828125 C7.0793689 38.63586182 7.0793689 38.63586182 6.67016602 40.57177734 C3.74589037 54.29837395 0.45901609 67.93895312 -2.95703125 81.55078125 C-3.18245605 82.44974121 -3.40788086 83.34870117 -3.64013672 84.27490234 C-7.05819134 97.80036593 -10.96978584 111.18364454 -14.95703125 124.55078125 C-15.1679541 125.26234375 -15.37887695 125.97390625 -15.59619141 126.70703125 C-16.97817928 131.34613759 -18.44561367 135.95265255 -19.95703125 140.55078125 C-20.26914551 141.5032373 -20.58125977 142.45569336 -20.90283203 143.43701172 C-30.91433192 173.74871028 -42.63171413 203.54308449 -55.95703125 232.55078125 C-56.54100375 233.83017202 -57.12481765 235.1096352 -57.70849609 236.38916016 C-71.74747701 267.10324841 -87.36610212 296.72069449 -104.95703125 325.55078125 C-105.86291992 327.03868164 -105.86291992 327.03868164 -106.78710938 328.55664062 C-112.97293267 338.69432908 -119.24728822 348.7501777 -125.95703125 358.55078125 C-126.87518776 359.90612282 -127.79314175 361.26160161 -128.7109375 362.6171875 C-129.68831593 364.05371631 -130.66617787 365.48991627 -131.64453125 366.92578125 C-132.09650879 367.59262939 -132.54848633 368.25947754 -133.01416016 368.9465332 C-142.1148803 382.22663291 -142.1148803 382.22663291 -150.95703125 384.55078125 C-158.03538243 385.47781133 -164.40051795 385.55242957 -170.3046875 381.18359375 C-175.44032864 376.10865759 -178.07563167 370.29312826 -178.45703125 363.11328125 C-178.3681099 358.2153249 -177.577563 355.19596073 -175.01953125 351.02734375 C-174.38208984 349.98618408 -173.74464844 348.94502441 -173.08789062 347.87231445 C-169.71444124 342.61386132 -166.24938035 337.422978 -162.73931885 332.25497437 C-122.68739494 273.16842557 -91.75361965 208.72591615 -67.95703125 141.55078125 C-67.51343262 140.30893066 -67.06983398 139.06708008 -66.61279297 137.78759766 C-61.33984679 123.01345226 -56.48233484 108.23774865 -52.59521484 93.03710938 C-51.97636818 90.62611688 -51.33950864 88.22073674 -50.6953125 85.81640625 C-49.6464196 81.89696754 -48.62020431 77.972105 -47.60449219 74.04394531 C-47.16379143 72.34694826 -46.7189681 70.65101767 -46.27050781 68.95605469 C-43.60755173 58.87773392 -41.15158139 48.79485237 -39.1953125 38.5546875 C-39.04535828 37.77572113 -38.89540405 36.99675476 -38.74090576 36.19418335 C-37.99817692 32.32262321 -37.27469847 28.44892529 -36.58056641 24.56835938 C-34.96826113 15.84003449 -33.23880448 7.95215709 -26.859375 1.39453125 C-26.21097656 0.95109375 -25.56257813 0.50765625 -24.89453125 0.05078125 C-24.24355469 -0.41328125 -23.59257813 -0.87734375 -22.921875 -1.35546875 C-15.55685001 -5.45528385 -6.90798737 -4.34041685 0 0 Z " fill="#FB664B" transform="translate(1890.95703125,1160.44921875)"/>
<path d="M0 0 C7.2529218 4.1860335 11.35779953 8.90225717 14.1328125 16.83203125 C15.01170466 20.42991527 15.65898233 24.06373505 16.3203125 27.70703125 C20.88297253 51.49232217 26.76841379 74.86377165 34.20263672 97.91650391 C35.17240394 100.95612599 36.10381504 104.00580656 37.03125 107.05859375 C48.16088711 143.30511461 62.16708464 178.46079999 78.1328125 212.83203125 C78.61878906 213.87842773 79.10476563 214.92482422 79.60546875 216.00292969 C85.74063435 229.14672793 92.19288729 242.09468511 99.1328125 254.83203125 C99.64150879 255.76708496 100.15020508 256.70213867 100.67431641 257.66552734 C116.94214301 287.43560142 135.12755177 315.95579119 154.79345703 343.59130859 C155.33599121 344.35652832 155.87852539 345.12174805 156.4375 345.91015625 C157.1488208 346.90644043 157.1488208 346.90644043 157.87451172 347.92285156 C162.05800502 354.27033267 161.92873574 360.36710909 161.1328125 367.83203125 C160.01256771 371.09897769 158.43522818 373.28576366 156.1328125 375.83203125 C155.60945312 376.50363281 155.08609375 377.17523437 154.546875 377.8671875 C151.44893994 381.26950483 149.14564386 382.65916288 144.5625 383.44140625 C136.70228888 383.72268617 131.02221309 383.14484167 125.1328125 377.83203125 C119.62132814 372.10705327 115.0651957 365.73972846 110.5703125 359.20703125 C109.87413818 358.19922607 109.17796387 357.1914209 108.46069336 356.15307617 C101.410547 345.88192875 94.69295706 335.4213898 88.1328125 324.83203125 C87.45573242 323.74229004 86.77865234 322.65254883 86.08105469 321.52978516 C76.19448274 305.59149467 66.88160804 289.42870292 58.1328125 272.83203125 C57.25469085 271.18447741 56.37581851 269.5373234 55.49609375 267.890625 C53.00900161 263.22116987 50.56074452 258.53249229 48.1328125 253.83203125 C47.70822754 253.01154297 47.28364258 252.19105469 46.84619141 251.34570312 C30.63553556 219.87266379 17.24546887 187.21922091 5.1953125 153.95703125 C4.92581787 153.21484344 4.65632324 152.47265564 4.37866211 151.70797729 C0.6802546 141.49460625 -2.68196053 131.216687 -5.8671875 120.83203125 C-6.69534831 118.20536558 -7.53152738 115.58132742 -8.3671875 112.95703125 C-10.838838 105.09634424 -13.04578642 97.17071272 -15.20800781 89.22021484 C-15.86457258 86.84150503 -16.54647258 84.47138148 -17.234375 82.1015625 C-20.4405342 70.92217719 -23.16468388 59.64101451 -25.69247437 48.29141235 C-26.05382914 46.6747344 -26.41992376 45.05910727 -26.79116821 43.44467163 C-32.62105772 17.97809778 -32.62105772 17.97809778 -27.7421875 9.26953125 C-20.87166808 0.18020386 -11.17876166 -4.55374623 0 0 Z " fill="#FB664B" transform="translate(188.8671875,1167.16796875)"/>
<path d="M0 0 C7.02080873 -0.36388338 12.06299865 0.9986643 17.39550781 5.67871094 C21.52771829 9.78693877 24.97455703 14.05616545 28.25 18.8671875 C29.29800108 20.38163223 30.34618561 21.89595002 31.39453125 23.41015625 C32.20398193 24.58650635 32.20398193 24.58650635 33.02978516 25.78662109 C34.67165116 28.15680822 36.33713381 30.50830862 38.01171875 32.85546875 C56.84017003 59.30785955 73.85870449 87.13395478 89.328125 115.68017578 C90.3090977 117.48391115 91.29693594 119.28391854 92.2890625 121.08154297 C115.80189654 163.68537482 134.78221451 208.22436595 150.6875 254.1796875 C151.02361298 255.14932434 151.02361298 255.14932434 151.36651611 256.1385498 C156.63195603 271.35264516 161.49753791 286.63504752 165.6875 302.1796875 C165.94463776 303.13279816 165.94463776 303.13279816 166.20697021 304.10516357 C167.60569579 309.29418093 168.99324087 314.48612837 170.375 319.6796875 C170.66395142 320.76408615 170.66395142 320.76408615 170.95874023 321.87039185 C180.72103654 358.5797798 180.72103654 358.5797798 175.1875 368.7421875 C172.10521318 373.2041646 168.52801843 375.83574276 163.6875 378.1796875 C163.0275 378.5096875 162.3675 378.8396875 161.6875 379.1796875 C154.88812146 379.91192827 149.03821497 379.98556828 143.4296875 375.76171875 C136.15696659 369.15756636 134.28192464 362.06355099 132.24121094 352.66552734 C131.1842463 347.9203713 129.99212744 343.20806669 128.8125 338.4921875 C128.4263855 336.94567505 128.4263855 336.94567505 128.0324707 335.36791992 C125.48295129 325.23395623 122.67797398 315.19178764 119.6875 305.1796875 C119.37474121 304.1278125 119.06198242 303.0759375 118.73974609 301.9921875 C106.64720702 261.55501766 91.76335631 222.32908834 73.6875 184.1796875 C73.21103027 183.16648437 72.73456055 182.15328125 72.24365234 181.109375 C61.12565307 157.48866352 49.07641254 134.59284505 35.6875 112.1796875 C35.11773438 111.220625 34.54796875 110.2615625 33.9609375 109.2734375 C20.613317 86.84455921 6.25168705 64.95486724 -9.390625 44.05078125 C-9.89166748 43.37861572 -10.39270996 42.7064502 -10.90893555 42.01391602 C-11.84879733 40.75789757 -12.79503242 39.50660824 -13.74926758 38.26147461 C-18.92363796 31.36198663 -21.50824948 24.92102851 -20.3125 16.1796875 C-18.41696621 9.55128003 -13.95059379 4.96778177 -8.3125 1.1796875 C-5.42466832 0.23800326 -2.99461681 0.23268982 0 0 Z " fill="#FB664B" transform="translate(1712.3125,481.8203125)"/>
<path d="M0 0 C5.90313043 2.66040501 9.75940891 7.19949039 12.95703125 12.72265625 C14.87054535 20.75941549 13.1386324 27.0363243 9.58203125 34.34765625 C7.74266288 37.2691841 5.65699147 39.95184636 3.51953125 42.66015625 C-10.39989822 60.93022715 -22.744989 80.58208377 -34.41796875 100.34765625 C-34.8547998 101.08532227 -35.29163086 101.82298828 -35.74169922 102.58300781 C-43.27124031 115.33861818 -50.40628 128.30156647 -57.41796875 141.34765625 C-57.87671387 142.19521484 -58.33545898 143.04277344 -58.80810547 143.91601562 C-83.72690502 190.03867666 -105.35359558 240.81473246 -118.54296875 291.66015625 C-120.04048837 297.3635667 -121.60949686 303.02129516 -123.375 308.6484375 C-125.48921414 315.44949366 -127.27107112 322.31014238 -128.98046875 329.22265625 C-129.28710449 330.44702393 -129.59374023 331.6713916 -129.90966797 332.93286133 C-131.48157379 339.27906234 -132.90170887 345.59845054 -134.04296875 352.03515625 C-135.73105585 360.88482499 -138.97359294 367.18217099 -146.41796875 372.34765625 C-151.77144366 375.95813933 -157.15189812 376.29112711 -163.41796875 375.34765625 C-170.36598173 372.60131328 -174.6587597 367.50210006 -178.23046875 361.09765625 C-180.70153264 353.29429661 -179.37828923 345.67962123 -177.44140625 337.88671875 C-177.23367584 337.01606781 -177.02594543 336.14541687 -176.81192017 335.24838257 C-176.37167232 333.41348035 -175.92598527 331.57987534 -175.47509766 329.74755859 C-174.80385146 327.01692716 -174.15045158 324.28252519 -173.5 321.546875 C-170.93836206 310.89055489 -168.03601887 300.38047835 -164.80395508 289.90844727 C-163.35005689 285.18485199 -162.03747145 280.4260736 -160.73046875 275.66015625 C-141.38575298 207.1415572 -111.12828376 140.26564232 -74.41796875 79.34765625 C-73.81436523 78.33735352 -73.21076172 77.32705078 -72.58886719 76.28613281 C-64.63018893 62.98835171 -56.29204275 49.99023287 -47.60546875 37.16015625 C-47.17724823 36.52665253 -46.74902771 35.8931488 -46.30783081 35.240448 C-43.37992281 30.91783539 -40.41491449 26.62267236 -37.41796875 22.34765625 C-36.95537659 21.68570251 -36.49278442 21.02374878 -36.01617432 20.34173584 C-34.59481448 18.31862007 -33.15921263 16.30642272 -31.71875 14.296875 C-31.29216599 13.68890579 -30.86558197 13.08093658 -30.42607117 12.45454407 C-22.6709931 1.75859755 -13.52243141 -3.64821655 0 0 Z " fill="#FB664B" transform="translate(340.41796875,493.65234375)"/>
<path d="M0 0 C3.46950885 2.32018024 6.82934694 4.75748055 10.1875 7.234375 C16.89783717 12.15945684 23.96849385 16.55264653 31 21 C31.77666016 21.49338867 32.55332031 21.98677734 33.35351562 22.49511719 C99.38328177 64.33179088 171.06663191 96.48498343 269.52978516 124.41650391 C273.15672141 125.27323228 276.76471635 126.20111384 280.375 127.125 C284.46739485 128.16305005 288.55637993 129.12773234 292.6953125 129.95703125 C304.39575328 132.32009861 312.83708808 134.80311583 320 145 C322.86870221 149.77131226 322.69630229 154.59083066 322 160 C319.44715483 167.62291442 314.07706986 172.46146507 307 176 C294.02884538 177.04317967 282.42710409 174.71347122 269.9375 171.4375 C268.10103014 170.96992185 266.26427501 170.50346282 264.42724609 170.03808594 C259.27610791 168.72432797 254.13646886 167.36984628 249 166 C247.8351709 165.69143066 246.6703418 165.38286133 245.47021484 165.06494141 C238.59072286 163.21534701 231.79220153 161.14617273 225 159 C223.4570372 158.51593157 221.91406795 158.03188366 220.37109375 157.54785156 C156.81016515 137.55121068 95.19970872 111.81241364 37.84960938 77.68359375 C35.16760531 76.09902384 32.47102921 74.54418984 29.765625 73 C18.08682004 66.29295693 6.82413838 59.03402244 -4.375 51.5625 C-5.09332001 51.08369385 -5.81164001 50.6048877 -6.55172729 50.11157227 C-32.86795145 32.5385115 -32.86795145 32.5385115 -36 23 C-36.90868571 15.93127044 -36.32654489 9.79833143 -32 4 C-22.9170374 -5.87469784 -11.39135979 -6.20909329 0 0 Z " fill="#FB664B" transform="translate(548,1700)"/>
<path d="M0 0 C8.12032561 6.94535888 13.42224807 15.28665731 16.75 25.375 C17.36875 26.98375 17.36875 26.98375 18 28.625 C20.75266571 42.38832853 18.15237301 56.3205121 10.4375 68.06640625 C1.47614543 80.32603716 -10.03578434 87.96437689 -25.25 90.375 C-40.04663907 91.43938088 -52.34246963 88.51894466 -64.25 79.375 C-69.00789848 75.23386613 -73.11377161 70.86339968 -76.25 65.375 C-76.25 64.715 -76.25 64.055 -76.25 63.375 C-77.34441406 63.38053076 -77.34441406 63.38053076 -78.4609375 63.38617325 C-96.23063423 63.47458897 -114.00028694 63.54074105 -131.77015686 63.58224869 C-140.36361603 63.60285607 -148.95692818 63.63094166 -157.55029297 63.67675781 C-165.04205615 63.71668159 -172.53371284 63.74244608 -180.02557945 63.75135398 C-183.99090131 63.75655939 -187.95591855 63.76875558 -191.92114258 63.79792023 C-195.65745196 63.82517716 -199.39333277 63.83342446 -203.12973213 63.82743073 C-205.14643459 63.82904675 -207.16309094 63.85051557 -209.17967224 63.87268066 C-217.28455629 63.83597732 -222.99906324 63.11713738 -229.2734375 57.59375 C-229.94246094 56.74296875 -229.94246094 56.74296875 -230.625 55.875 C-231.31722656 55.02421875 -231.31722656 55.02421875 -232.0234375 54.15625 C-236.39322742 47.81031304 -236.2200821 40.68643962 -234.85546875 33.21484375 C-233.02535684 28.03149453 -228.64323348 24.42451555 -224.25 21.375 C-220.46860467 19.57165658 -217.51664674 19.13493032 -213.34292603 19.17054749 C-212.1597731 19.17528076 -210.97662018 19.18001404 -209.75761414 19.18489075 C-207.82339348 19.20757271 -207.82339348 19.20757271 -205.85009766 19.23071289 C-204.47157891 19.23942751 -203.09305326 19.24710141 -201.71452332 19.2538147 C-198.7505233 19.26940319 -195.78662238 19.29025415 -192.82268143 19.31456184 C-188.1324622 19.35086991 -183.4423895 19.36238113 -178.75204468 19.36802673 C-177.95959653 19.36909127 -177.16714839 19.3701558 -176.35068667 19.3712526 C-174.73053875 19.37339186 -173.11039077 19.37547886 -171.49024272 19.37751472 C-160.57484639 19.39236155 -149.66011094 19.42406311 -138.74511719 19.5222168 C-131.37615152 19.58829408 -124.00817007 19.61535025 -116.63891447 19.59766573 C-112.74166178 19.58989187 -108.84675561 19.60206444 -104.94990921 19.66209602 C-101.28315357 19.71830906 -97.61988428 19.72306537 -93.9528904 19.68899918 C-91.97282303 19.68399981 -89.99285102 19.73352776 -88.01344299 19.78486633 C-84.43554209 19.72273079 -81.62850173 19.56204279 -78.25 18.375 C-75.80175225 15.79431373 -74.26820423 13.32843718 -72.67337608 10.15637875 C-67.98747186 0.9997865 -58.29204478 -4.74905474 -49 -8.4375 C-32.37417604 -13.70234425 -13.93718451 -10.44753616 0 0 Z " fill="#FCFDDB" transform="translate(556.25,984.625)"/>
<path d="M0 0 C1.79824219 -0.01160156 1.79824219 -0.01160156 3.6328125 -0.0234375 C20.69529316 0.01357439 34.49881487 3.89059859 48.25 14.25 C48.91386719 14.73726562 49.57773438 15.22453125 50.26171875 15.7265625 C61.93921075 25.04102567 69.5475552 39.71890095 72.25 54.25 C74.32344707 73.18641887 70.08136824 90.71982479 58.2578125 105.7890625 C47.40968228 118.567465 33.69365969 126.273713 17.25 129.25 C12.38638616 129.62584162 7.56311674 129.62621689 2.6875 129.5625 C1.45064453 129.56572266 0.21378906 129.56894531 -1.06054688 129.57226562 C-20.56597087 129.45880203 -35.70544837 123.81341526 -50.0625 110.5 C-62.47430065 97.17364562 -68.69413566 80.00490866 -68.39282227 61.94750977 C-67.54381442 44.33344878 -59.7044952 28.24126262 -46.75 16.25 C-32.51163401 4.80812951 -18.17311155 -0.1157523 0 0 Z " fill="#F64A44" transform="translate(1021.75,1839.75)"/>
<path d="M0 0 C13.28487988 10.02192693 25.05122824 24.06370642 27.75390625 40.98046875 C30.36954854 63.0201418 29.79920178 86.04224596 15.94433594 104.37646484 C4.85525109 118.18884085 -10.61522171 127.7571404 -28.37207031 130.00927734 C-46.75948739 131.48472745 -62.79317324 126.93638089 -77.48828125 115.58203125 C-90.77618804 104.2523423 -98.69002958 88.89851493 -100.7734375 71.6796875 C-102.43877547 48.30340339 -100.16132034 28.98831704 -84.6484375 10.4921875 C-62.55226798 -12.84196775 -27.05042159 -17.94065761 0 0 Z " fill="#F64A44" transform="translate(1940.7734375,964.3203125)"/>
<path d="M0 0 C0.68964844 0.51175781 1.37929687 1.02351562 2.08984375 1.55078125 C13.53801002 10.68664463 21.69741573 25.61568838 24 40 C24.28270894 44.5864509 24.27926009 49.1561662 24.25 53.75 C24.25773438 54.94882812 24.26546875 56.14765625 24.2734375 57.3828125 C24.23046572 77.19280162 18.33846414 93.31401657 4.97265625 108.08984375 C-8.33304359 120.97397686 -25.52227629 126.43450916 -43.66674805 126.29541016 C-60.2955684 125.86368443 -75.78929473 118.56044631 -87.4453125 106.7890625 C-100.71109428 92.30623652 -105.56569922 75.81230407 -105.3125 56.4375 C-105.31733398 54.5822168 -105.31733398 54.5822168 -105.32226562 52.68945312 C-105.20873463 33.17244352 -99.57497857 17.90522416 -86.125 3.625 C-62.00687865 -19.01552894 -25.83699389 -19.96301505 0 0 Z " fill="#F64A44" transform="translate(184,968)"/>
<path d="M0 0 C12.13629404 10.43494441 21.82631154 24.99196227 23.546875 41.265625 C24.59961451 59.93295247 21.16545043 76.27470882 9.546875 91.265625 C9.0003125 91.97847656 8.45375 92.69132812 7.890625 93.42578125 C-2.55412984 106.21075238 -18.35503397 113.31782161 -34.453125 115.265625 C-57.88386786 116.93484264 -77.33124 114.67086379 -95.765625 98.953125 C-108.14336602 87.24981217 -115.90394495 71.21307879 -116.68359375 54.19140625 C-117.17515742 36.51709468 -112.16689668 19.94926461 -100.078125 6.703125 C-75.26977462 -19.2104843 -28.1270157 -22.94987701 0 0 Z " fill="#F64A44" transform="translate(1070.453125,92.734375)"/>
<path d="M0 0 C12.27050593 9.58633276 20.9870254 23.6174367 24.328125 38.81396484 C24.69995674 42.70111399 24.7049692 46.53713257 24.640625 50.43896484 C24.64384766 51.42380859 24.64707031 52.40865234 24.65039062 53.42333984 C24.51820761 71.44829598 16.75019737 86.18853392 4.515625 99.06396484 C-10.53961956 113.54545771 -27.56667349 117.44867121 -47.80859375 117.15380859 C-63.93019781 116.52986342 -77.5407637 108.07628767 -88.671875 96.81396484 C-101.25774875 83.09207398 -105.46366264 65.7086436 -104.9453125 47.58349609 C-104.11623939 30.05990531 -95.25100613 15.53032978 -82.671875 3.81396484 C-58.96738985 -16.51890994 -25.53969266 -18.11796538 0 0 Z " fill="#F64A44" transform="translate(448.671875,356.18603515625)"/>
<path d="M0 0 C0.98484375 -0.00322266 1.9696875 -0.00644531 2.984375 -0.00976562 C20.96792465 0.12211374 35.64940163 7.87428568 48.5625 20 C61.61201117 33.58806243 67.15956439 49.2165336 66.96923828 67.74462891 C66.28780723 86.07058138 58.65453512 101.6821866 45.375 114.3125 C29.8490257 127.27118721 12.06300278 130.65803726 -7.625 129.3125 C-24.31626611 127.37121249 -38.37436779 117.03449496 -48.96875 104.55078125 C-61.48203744 88.1854557 -64.56483678 69.99129273 -62.2265625 49.88671875 C-59.01737285 34.4867762 -49.19009041 20.61513657 -36.625 11.4375 C-24.95259813 3.81396253 -14.00450154 -0.23094495 0 0 Z " fill="#F64A44" transform="translate(406.625,1574.6875)"/>
<path d="M0 0 C13.40057229 10.65630616 23.56700122 25.64574191 26.24609375 42.73193359 C27.81304534 61.24154924 24.50172573 79.03847465 12.8515625 93.95068359 C1.96177464 106.43535377 -12.91668341 115.15412107 -29.55444336 117.05126953 C-32.37849682 117.2031831 -35.17589926 117.25072434 -38.00390625 117.23193359 C-39.00317139 117.22693848 -40.00243652 117.22194336 -41.03198242 117.21679688 C-59.7957887 116.7784255 -73.93748952 107.90609174 -86.76171875 94.65771484 C-100.75841124 79.23711641 -103.75889125 61.7812504 -102.97607422 41.5546875 C-101.77671761 26.31626865 -92.48762725 13.05894029 -81.75390625 2.73193359 C-58.41485865 -16.9055956 -24.6646438 -17.8324276 0 0 Z " fill="#F64A44" transform="translate(1677.75390625,356.26806640625)"/>
<path d="M0 0 C1.00192383 0.00499512 2.00384766 0.00999023 3.03613281 0.01513672 C20.15396905 0.41252485 34.98296367 7.04686148 47.37109375 18.87109375 C60.93147881 33.10844031 65.49335202 49.51979232 65.11328125 68.62890625 C64.49318708 84.61389536 57.03378022 99.68606953 45.73046875 110.87890625 C30.52891764 124.83272403 14.04850754 130.35294277 -6.35546875 129.7734375 C-22.39852479 129.01441119 -37.29998044 121.30041885 -48.125 109.5 C-58.90264778 96.68488171 -64.73647707 82.02729877 -64.625 65.25 C-64.61750732 63.75110229 -64.61750732 63.75110229 -64.60986328 62.22192383 C-64.19643534 44.52578241 -56.3564342 30.95642714 -44.125 18.5 C-43.43664063 17.78714844 -42.74828125 17.07429688 -42.0390625 16.33984375 C-30.74764911 5.44719775 -15.5313276 -0.10269952 0 0 Z " fill="#F64A44" transform="translate(1639.125,1574.5)"/>
<path d="M0 0 C1.40765625 -0.01160156 1.40765625 -0.01160156 2.84375 -0.0234375 C5.5 0.375 5.5 0.375 9.5 3.375 C3.23 3.375 -3.04 3.375 -9.5 3.375 C-5.41858096 0.31393572 -4.74526617 -0.03910934 0 0 Z " fill="#A9A995" transform="translate(1025.5,326.625)"/>
<path d="M0 0 C0.66 0.33 1.32 0.66 2 1 C-1.3 4.3 -4.6 7.6 -8 11 C-8 6.67750434 -5.85084926 5.11604454 -3 2 C-2.01 1.34 -1.02 0.68 0 0 Z " fill="#D65C46" transform="translate(523,1698)"/>
<path d="M0 0 C0.66 0.33 1.32 0.66 2 1 C-0.64 3.97 -3.28 6.94 -6 10 C-6.33 9.34 -6.66 8.68 -7 8 C-4.69 5.36 -2.38 2.72 0 0 Z " fill="#D15A45" transform="translate(168,1169)"/>
<path d="M0 0 C0.66 0.33 1.32 0.66 2 1 C-0.97 3.97 -3.94 6.94 -7 10 C-7.33 9.34 -7.66 8.68 -8 8 C-5.58443874 4.80800833 -3.31996462 2.25283313 0 0 Z " fill="#D15B45" transform="translate(1868,1159)"/>
<path d="M0 0 C-1.5830577 4.2742558 -4.50568404 6.26531794 -8 9 C-6.68994234 5.06982701 -4.75047804 0 0 0 Z " fill="#D45B46" transform="translate(1695,1147)"/>
<path d="M0 0 C0.66 0.33 1.32 0.66 2 1 C0.88121617 2.17262904 -0.24523051 3.33795138 -1.375 4.5 C-2.00148438 5.1496875 -2.62796875 5.799375 -3.2734375 6.46875 C-5 8 -5 8 -7 8 C-5.50902342 4.2047869 -3.24299151 2.38957269 0 0 Z " fill="#D45B46" transform="translate(1187,170)"/>
<path d="M0 0 C0.66 0.33 1.32 0.66 2 1 C-0.31 3.31 -2.62 5.62 -5 8 C-5.66 7.67 -6.32 7.34 -7 7 C-4.66666667 4.66666667 -2.33333333 2.33333333 0 0 Z " fill="#D85D46" transform="translate(1163,333)"/>
</svg>
